<svg xmlns:xlink="http://www.w3.org/1999/xlink" class="gh__utility-bar__sign-in__icon" viewBox="0 0 43 43" xmlns="http://www.w3.org/2000/svg" fill-rule="evenodd" clip-rule="evenodd" stroke-linejoin="round" stroke-miterlimit="10" width="43"  height="43" ><path fill="none" d="M0 0h43.856v43.753H0z"></path><path d="M35 44s-1.5-.5-1.5-3c-.8 0-.8-2 0-2 0-.3-1.5-4 1-3.5.5-2 6-2 6.5 0 .3 1.4-.5 3.3-.5 3.5.8 0 .8 2 0 2 0 2.5-1.5 3-1.5 3v2.5c2.5.9 4.9 1.7 6.2 2.6 2-2.1 3.3-4.9 3.3-8.1 0-6.4-5.1-11.5-11.5-11.5S25.5 34.6 25.5 41c0 3.2 1.3 6 3.3 8.1 1.3-.9 4-1.7 6.2-2.6V44zM28.8 49.1c2.1 2.1 5 3.4 8.2 3.4 3.2 0 6.1-1.3 8.2-3.4" fill="none" stroke="#000000" stroke-width="1.5px" transform="translate(-15.5 -19.5)"></path></svg>