<svg class="gh__utility-bar__support__icon" version="1.1" xmlns="http://www.w3.org/2000/svg" xmlns:xlink="http://www.w3.org/1999/xlink" width="18"  height="18" ><g id="Page-1" stroke="none" stroke-width="1" fill="none" fill-rule="evenodd"><g transform="translate(-1235.000000, -29.000000)" fill="#000000" fill-rule="nonzero"><g id="Group-6" transform="translate(1235.000000, 29.000000)"><path d="M8.5,0 C13.1944204,0 17,3.80557963 17,8.5 C17,13.1944204 13.1944204,17 8.5,17 C3.80557963,17 0,13.1944204 0,8.5 C0,3.80557963 3.80557963,0 8.5,0 Z M8.5,1 C4.35786438,1 1,4.35786438 1,8.5 C1,12.6421356 4.35786438,16 8.5,16 C12.6421356,16 16,12.6421356 16,8.5 C16,4.35786438 12.6421356,1 8.5,1 Z" id="Oval"></path><path d="M7.65234375,10.2460938 C7.66015629,9.78124768 7.71289014,9.41406385 7.81054688,9.14453125 C7.90820361,8.87499865 8.10742037,8.57617352 8.40820312,8.24804688 L9.17578125,7.45703125 C9.50390789,7.08593564 9.66796875,6.68750213 9.66796875,6.26171875 C9.66796875,5.85156045 9.56054795,5.5302746 9.34570312,5.29785156 C9.1308583,5.06542853 8.81836143,4.94921875 8.40820312,4.94921875 C8.00976363,4.94921875 7.68945434,5.05468645 7.44726562,5.265625 C7.20507691,5.47656355 7.08398438,5.75976385 7.08398438,6.11523438 L6,6.11523438 C6.00781254,5.48241871 6.23339622,4.97168163 6.67675781,4.58300781 C7.1201194,4.19433399 7.69726207,4 8.40820312,4 C9.14648807,4 9.72167763,4.19824021 10.1337891,4.59472656 C10.5459005,4.99121292 10.7519531,5.53515279 10.7519531,6.2265625 C10.7519531,6.91015967 10.43555,7.58398105 9.80273438,8.24804688 L9.1640625,8.88085938 C8.87890482,9.19726721 8.73632812,9.65234078 8.73632812,10.2460938 L7.65234375,10.2460938 Z M7.60546875,12.1035156 C7.60546875,11.9277335 7.65917915,11.780274 7.76660156,11.6611328 C7.87402397,11.5419916 8.03320207,11.4824219 8.24414062,11.4824219 C8.45507918,11.4824219 8.61523383,11.5419916 8.72460938,11.6611328 C8.83398492,11.780274 8.88867188,11.9277335 8.88867188,12.1035156 C8.88867188,12.2792978 8.83398492,12.4248041 8.72460938,12.5400391 C8.61523383,12.655274 8.45507918,12.7128906 8.24414062,12.7128906 C8.03320207,12.7128906 7.87402397,12.655274 7.76660156,12.5400391 C7.65917915,12.4248041 7.60546875,12.2792978 7.60546875,12.1035156 Z"></path></g></g></g></svg>